<?xml version="1.0" encoding="UTF-8"?>
<svg id="Layer_1" xmlns="http://www.w3.org/2000/svg" version="1.1" viewBox="0 0 8192 2489.4">
  <!-- Generator: Adobe Illustrator 29.8.2, SVG Export Plug-In . SVG Version: 2.1.1 Build 3)  -->
  <polygon points="1353.9 1091.6 945.8 1339.5 945.8 1339.3 852.1 1401.7 945.8 1283.2 945.8 615.5 774.6 496.2 774.6 1644 1353.9 1292 1353.9 1091.6"/>
  <polygon points="1069.3 925.5 1069.3 1125 1490 873.8 1490 874.3 1593 810.1 1490 915 1490 1480.5 1457.2 1389.9 774.6 1794.1 774.6 1993.2 1490 1569.6 1490 1569.6 1661.3 1467.4 1661.3 572 1069.3 925.5"/>
  <g>
    <path d="M2251.1,1013.1l22.1.9c6.5,0,14.7.7,24.8,2.2,10,1.5,18.2,2.9,24.7,4.4,6.5,1.5,10.3,2.2,11.5,2.2l-101.6,291.5,289.9,17.7v4.4c-3,8.8-9.6,16.2-19.9,22.1-10.3,5.9-21.6,10.9-34,15.1-12.4,4.1-24.4,7.1-36.2,8.8-11.8,1.7-20.3,2.7-25.6,2.7h-303c1.2-4.7,4.6-9.6,10.2-14.6,5.6-5,10.2-9,13.7-12l123.7-345.5h0Z"/>
    <path d="M3120.6,1007.8c4.7,0,10.5.6,17.2,1.7,6.8,1.2,14,2.5,21.6,4,7.7,1.5,14.9,2.9,21.7,4.4,6.8,1.5,12.5,2.8,17.2,4l-108.7,310.1,5.3,44.2-19.4,8.8h-361.4c-7.6,0-16.5-.5-26.5-1.3-10-.9-20-2.8-30-5.7-10.1-2.9-19.2-7.1-27.4-12.4-8.2-5.3-14.4-12.3-18.6-21.2-1.2-1.7-1.5-4.4-.9-7.9.6-3.6,1.2-6.2,1.8-8l113.1-315.4c4.1,0,9.7.6,16.8,1.8s14.4,2.3,22.1,3.5c7.6,1.2,15,2.5,22.1,4,7.1,1.5,13,2.5,17.7,3.1l-89.2,253.6c-1.8,4.7-1.9,9.1-.5,13.2,1.5,4.1,4,7.8,7.5,11.1,3.5,3.2,7.5,5.7,11.9,7.5s8.7,2.7,12.8,2.7h266l107.8-305.7h0Z"/>
    <path d="M3684.3,1323.3l-.9.8c-5.3,8.3-13.6,16.1-24.7,23.5-11.2,7.4-23,13.8-35.3,19.4-12.4,5.6-24.3,10-35.8,13.2-11.5,3.3-20.2,4.9-26.1,4.9h-379.9l106.9-301.3c4.1-12.4,14.1-22.5,30-30.5,15.9-7.9,33-14.3,51.2-19,18.2-4.7,35.9-7.9,53-9.7,17.1-1.7,29.2-2.6,36.2-2.6h335.8l15.9,8.8-52.1,61.8h-339.3c-4.1,0-9.1.9-15,2.7-5.9,1.7-11.8,4.3-17.7,7.5-5.9,3.3-11.2,7.1-15.9,11.5-4.7,4.5-7.9,9-9.7,13.7l-65.4,187.3h394.9c-1.2,2.4-3.5,5-7.1,8h.9Z"/>
    <path d="M4070.9,1367.4c-23.8,11.8-47.3,17.7-70.2,17.7h-129.9c-23,0-42.4-5.9-58.3-17.7-15.9-11.8-28-26.5-36.2-44.1h140.5l86.6-238.6h-140.5c19.4-17.7,41.1-32.4,65-44.2,23.8-11.8,47.3-17.6,70.2-17.6h129.9c23,0,42.4,5.9,58.3,17.6,15.9,11.8,28,26.5,36.2,44.2h-140.5l-86.6,238.6h140.5c-19.4,17.6-41.1,32.4-65,44.1Z"/>
    <path d="M4332,1022.8h335.8c4.7,0,11.6.4,20.8,1.3,9.1.9,19,2.2,29.6,4,10.6,1.8,21.2,4.1,31.8,7.1,10.6,2.9,20,6.8,28.3,11.5,8.2,4.7,14.3,10.2,18.1,16.3,3.9,6.2,4.3,13.4,1.3,21.6l-106.9,300.4h-486.9l-15.9-8.8,38.9-44.2,90.1-256.3-4.4-44.2,19.4-8.8h0ZM4693.4,1123.5c.6-8.2-2.7-15.3-9.7-21.2-7.1-5.9-14.1-8.9-21.2-8.9h-256.3l-78.6,220h299.5l66.3-190h0Z"/>
    <path d="M5612.3,1323.3l-.9.8c-5.3,8.3-13.6,16.1-24.7,23.5-11.2,7.4-23,13.8-35.3,19.4-12.4,5.6-24.3,10-35.8,13.2-11.5,3.3-20.2,4.9-26.1,4.9h-379.9l106.9-301.3c4.1-12.4,14.1-22.5,30-30.5,15.9-7.9,33-14.3,51.2-19,18.2-4.7,35.9-7.9,53-9.7,17.1-1.7,29.2-2.6,36.2-2.6h335.8l15.9,8.8-52.1,61.8h-339.3c-4.1,0-9.1.9-15,2.7-5.9,1.7-11.8,4.3-17.7,7.5-5.9,3.3-11.2,7.1-15.9,11.5-4.7,4.5-7.9,9-9.7,13.7l-65.4,187.3h394.9c-1.2,2.4-3.5,5-7.1,8h.9Z"/>
    <path d="M5742.2,1332.1l88.4-248.3c2.9-8.8,9.7-17.1,20.3-24.8,10.6-7.6,22.2-14.1,34.9-19.4,12.7-5.3,25.4-9.6,38-12.8,12.7-3.2,22.2-4.8,28.8-4.8h379.9l-106.9,301.3c-4.7,12.3-14.9,22.5-30.5,30.5-15.6,7.9-32.6,14.3-50.8,19-18.3,4.8-35.9,8-53,9.7-17.1,1.7-29.2,2.7-36.2,2.7h-335.8l-15.9-8.8,38.9-44.2h0ZM6098.3,1314.4c8.2,0,18.6-3.4,30.9-10.2,12.4-6.7,20.6-15.1,24.7-25.1l68-186.5h-300.4l-79.5,221.8h256.2Z"/>
    <path d="M6423.4,1048.9c-1.2-8.5-2.1-14.6-2.7-18.1v-8.8h434.7l-57.4,167.9-84.8,61.8c-5.9,2.9-12.1,4-18.6,3.1-6.5-.9-13,1-19.4,5.7,7.6,10.6,16.6,21.4,26.9,32.2,10.3,10.9,20.8,22,31.4,33.1,10.6,11.2,20.9,23.2,30.9,35.8,10,12.7,19.2,26.1,27.4,40.2h-16.8c-18.3,0-35.5-1.5-51.7-4.4-16.2-2.9-31.7-7.9-46.4-15-1.2.6-5.1-1.7-11.9-7.1-6.8-5.3-14.9-12.4-24.3-21.2-9.4-8.8-19.6-18.4-30.5-28.7-10.9-10.3-21-20-30.5-29.1-9.4-9.1-17.5-17.1-24.3-23.9-6.8-6.7-11-10.7-12.8-11.9-1.7-1.2-4.6-2.9-8.4-5.3-3.8-2.3-6-3.5-6.6-3.5l-86.6,8.8-44.2,123.7c-.6,2.9-5.2,6-13.7,9.3-8.5,3.2-17.8,6.2-27.8,8.8-10,2.7-19.4,4.7-28.3,6.2-8.8,1.5-13.6,2.2-14.1,2.2-1.2,0-2.7-1.2-4.4-3.6-1.8-2.4-2.7-4.1-2.7-5.3l121.1-335.7c-1.2-2.9-2.4-8.7-3.5-17.2h0ZM6473.8,1181h220.9c7.1,0,13.6-2.2,19.4-6.6s10.7-9.7,14.6-15.9c3.9-6.2,7.1-12.5,9.7-19,2.7-6.4,4.6-12,5.7-16.8l.9-2.7c2.3-2.9,4.1-7.9,5.3-15,1.2-7,2.3-11.2,3.5-12.4l-7.1-8.8h-238.6l-34.5,97.2h0Z"/>
    <path d="M6985.4,1048.9c-1.2-8.5-2.1-14.6-2.7-18.1v-8.8h434.7l-57.4,167.9-84.8,61.8-272.2,8.8-44.2,123.7c-.6,2.9-5.2,6-13.7,9.3-8.5,3.2-17.8,6.2-27.8,8.8-10,2.7-19.4,4.7-28.3,6.2-8.8,1.5-13.6,2.2-14.1,2.2-1.2,0-2.7-1.2-4.4-3.6-1.8-2.4-2.7-4.1-2.7-5.3l121.1-335.7c-1.2-2.9-2.4-8.7-3.5-17.2h0ZM7035.7,1181h220.9c7.1,0,13.6-2.2,19.4-6.6s10.7-9.7,14.6-15.9c3.9-6.2,7.1-12.5,9.7-19,2.7-6.4,4.6-12,5.7-16.8l.9-2.7c2.3-2.9,4.1-7.9,5.3-15,1.2-7,2.3-11.2,3.5-12.4l-7.1-8.8h-238.6l-34.5,97.2h0Z"/>
  </g>
  <path d="M1925.2,423.4c6.4,136.9,9.4,273.8,11.9,410.7,2.6,136.9,2.3,273.8,3.6,410.7l-3.6,410.7c-2.5,136.9-5.5,273.8-12,410.7-6.5-136.9-9.5-273.8-12-410.7l-3.6-410.7c1.3-136.9,1.1-273.8,3.6-410.7,2.5-136.9,5.5-273.8,11.9-410.7h0Z"/>
</svg>